<svg width="1692" height="404" viewBox="0 0 1692 404" fill="none" xmlns="http://www.w3.org/2000/svg">
<path d="M51.1804 317.639H19.3269V66.7474H51.1804V136.539C58.6964 136.539 98.0659 136.181 105.582 137.255C111.308 137.97 117.393 139.76 120.972 144.055C126.34 150.497 125.625 160.518 125.625 168.75H157.836C158.194 186.645 158.194 299.385 157.836 317.639H125.625V168.75C116.319 169.108 60.4859 168.75 51.1804 168.75V317.639ZM245.606 317.281C240.238 316.923 234.511 316.207 229.501 313.702C226.638 311.912 224.132 309.407 222.701 306.544C219.837 300.459 220.195 292.943 220.195 286.143C213.753 286.501 206.953 286.501 200.51 283.996C196.931 282.564 192.994 280.059 191.205 276.48C189.058 272.9 188.7 268.248 188.7 264.311C188.342 258.942 187.984 234.247 188.7 228.878C189.415 224.941 191.205 220.646 194.068 217.783C197.647 214.562 203.016 213.13 207.669 212.415C214.469 211.341 221.269 211.699 228.069 211.699H316.114V169.108C303.945 169.466 233.08 169.466 220.911 169.108C220.911 161.592 220.195 153.36 223.774 146.56C226.995 141.192 233.796 138.328 239.88 137.613C245.964 136.539 278.176 137.255 284.26 136.897C292.134 136.539 300.724 136.897 307.524 140.834C311.461 143.339 314.324 147.992 315.04 152.645C316.472 158.013 316.114 163.382 316.114 169.108C323.988 168.75 332.935 169.108 339.735 173.045C343.672 175.55 346.178 180.561 347.251 185.214C348.683 192.372 348.325 227.447 348.325 234.605C348.325 262.163 348.325 289.722 347.967 317.281C337.588 317.639 326.851 317.639 316.114 317.281V243.91H220.195C220.553 249.279 220.195 280.059 220.195 285.069H284.976V317.281C279.965 317.639 250.975 317.639 245.606 317.281ZM417.241 317.639C411.157 317.639 405.073 317.639 399.346 316.207C395.409 315.133 391.83 312.986 389.325 309.765C386.461 306.186 385.746 301.175 385.746 296.522C385.388 293.659 385.388 277.553 385.388 274.69V168.392H416.883C416.883 159.803 416.525 149.065 422.61 142.981C429.052 136.897 439.789 136.539 448.737 136.539H524.255V168.392C511.012 168.392 430.484 168.75 417.241 168.392V285.427H524.613V317.639C511.37 317.996 430.484 317.996 417.241 317.639ZM588.988 317.639H557.134V66.7474H588.988V317.639ZM663.432 317.639V232.457H588.988V200.246H663.432V136.539H695.644C695.644 142.981 696.359 175.908 695.286 181.993C694.57 186.288 693.138 191.298 689.917 194.161C683.475 200.604 672.738 200.962 663.79 200.604V232.457C669.517 232.099 675.601 232.457 681.327 233.889C685.98 235.32 690.991 238.542 693.138 243.194C696.359 249.637 695.644 256.795 695.644 263.953C695.644 270.395 696.001 310.838 695.644 317.639H663.432Z" fill="black"/>
<path d="M51.1804 317.639V321.669H55.2104V317.639H51.1804ZM19.3269 317.639H15.2969V321.669H19.3269V317.639ZM19.3269 66.7474V62.7174H15.2969V66.7474H19.3269ZM51.1804 66.7474H55.2104V62.7174H51.1804V66.7474ZM51.1804 136.539H47.1504V140.569H51.1804V136.539ZM105.582 137.255L105.012 141.244L105.047 141.249L105.082 141.253L105.582 137.255ZM120.972 144.055L124.068 141.475L124.068 141.475L120.972 144.055ZM125.625 168.75H121.595V172.78H125.625V168.75ZM157.836 168.75L161.865 168.67L161.786 164.72H157.836V168.75ZM157.836 317.639V321.669H161.788L161.865 317.718L157.836 317.639ZM125.625 317.639H121.595V321.669H125.625V317.639ZM125.625 168.75H129.655V164.562L125.47 164.723L125.625 168.75ZM51.1804 168.75V164.72H47.1504V168.75H51.1804ZM51.1804 317.639V313.609H19.3269V317.639V321.669H51.1804V317.639ZM19.3269 317.639H23.3569V66.7474H19.3269H15.2969V317.639H19.3269ZM19.3269 66.7474V70.7774H51.1804V66.7474V62.7174H19.3269V66.7474ZM51.1804 66.7474H47.1504V136.539H51.1804H55.2104V66.7474H51.1804ZM51.1804 136.539V140.569C55.0024 140.569 66.6379 140.479 78.3657 140.524C90.2563 140.569 101.606 140.758 105.012 141.244L105.582 137.255L106.152 133.265C102.042 132.678 89.9487 132.508 78.3965 132.464C66.6816 132.419 54.8743 132.509 51.1804 132.509V136.539ZM105.582 137.255L105.082 141.253C110.583 141.941 115.326 143.574 117.876 146.635L120.972 144.055L124.068 141.475C119.46 135.946 112.034 134 106.082 133.256L105.582 137.255ZM120.972 144.055L117.876 146.635C119.838 148.99 120.855 152.203 121.307 156.186C121.765 160.226 121.595 164.41 121.595 168.75H125.625H129.655C129.655 164.859 129.842 159.916 129.316 155.277C128.783 150.581 127.474 145.562 124.068 141.475L120.972 144.055ZM125.625 168.75V172.78H157.836V168.75V164.72H125.625V168.75ZM157.836 168.75L153.807 168.831C154.164 186.672 154.164 299.359 153.807 317.56L157.836 317.639L161.865 317.718C162.224 299.412 162.224 186.619 161.865 168.67L157.836 168.75ZM157.836 317.639V313.609H125.625V317.639V321.669H157.836V317.639ZM125.625 317.639H129.655V168.75H125.625H121.595V317.639H125.625ZM125.625 168.75L125.47 164.723C116.266 165.077 60.6198 164.72 51.1804 164.72V168.75V172.78C60.352 172.78 116.372 173.139 125.779 172.777L125.625 168.75ZM51.1804 168.75H47.1504V317.639H51.1804H55.2104V168.75H51.1804ZM229.501 313.702L227.365 317.119L227.527 317.221L227.698 317.306L229.501 313.702ZM222.701 306.544L219.054 308.259L219.075 308.303L219.096 308.346L222.701 306.544ZM220.195 286.143H224.225V281.883L219.972 282.119L220.195 286.143ZM200.51 283.996L199.014 287.737L199.032 287.744L199.05 287.751L200.51 283.996ZM191.205 276.48L194.809 274.677L194.74 274.539L194.661 274.406L191.205 276.48ZM188.7 264.311H192.73V264.177L192.721 264.043L188.7 264.311ZM188.7 228.878L184.735 228.157L184.718 228.251L184.705 228.346L188.7 228.878ZM194.068 217.783L191.372 214.788L191.293 214.859L191.219 214.934L194.068 217.783ZM207.669 212.415L208.281 216.398L208.289 216.397L208.297 216.395L207.669 212.415ZM316.114 211.699V215.729H320.144V211.699H316.114ZM316.114 169.108H320.144V164.958L315.995 165.08L316.114 169.108ZM220.911 169.108H216.881V173.021L220.793 173.136L220.911 169.108ZM223.774 146.56L220.319 144.487L220.261 144.583L220.208 144.683L223.774 146.56ZM239.88 137.613L240.351 141.615L240.466 141.601L240.58 141.581L239.88 137.613ZM284.26 136.897L284.077 132.871L284.05 132.872L284.024 132.874L284.26 136.897ZM307.524 140.834L309.688 137.434L309.616 137.388L309.543 137.346L307.524 140.834ZM315.04 152.645L311.057 153.257L311.09 153.472L311.146 153.683L315.04 152.645ZM316.114 169.108H312.084V173.325L316.297 173.134L316.114 169.108ZM339.735 173.045L341.899 169.645L341.828 169.6L341.755 169.557L339.735 173.045ZM347.251 185.214L351.203 184.423L351.192 184.365L351.178 184.308L347.251 185.214ZM347.967 317.281L348.106 321.308L351.947 321.176L351.997 317.333L347.967 317.281ZM316.114 317.281H312.084V321.179L315.979 321.308L316.114 317.281ZM316.114 243.91H320.144V239.88H316.114V243.91ZM220.195 243.91V239.88H215.888L216.174 244.178L220.195 243.91ZM220.195 285.069H216.165V289.099H220.195V285.069ZM284.976 285.069H289.006V281.039H284.976V285.069ZM284.976 317.281L285.263 321.3L289.006 321.033V317.281H284.976ZM245.606 317.281L245.875 313.26C240.584 312.907 235.549 312.22 231.303 310.097L229.501 313.702L227.698 317.306C233.474 320.194 239.891 320.939 245.338 321.302L245.606 317.281ZM229.501 313.702L231.637 310.284C229.26 308.799 227.337 306.806 226.305 304.741L222.701 306.544L219.096 308.346C220.927 312.008 224.015 315.025 227.365 317.119L229.501 313.702ZM222.701 306.544L226.347 304.828C223.964 299.763 224.225 293.387 224.225 286.143H220.195H216.165C216.165 292.499 215.711 301.156 219.054 308.259L222.701 306.544ZM220.195 286.143L219.972 282.119C213.608 282.473 207.554 282.411 201.971 280.24L200.51 283.996L199.05 287.751C206.351 290.591 213.898 290.529 220.419 290.167L220.195 286.143ZM200.51 283.996L202.007 280.254C198.768 278.958 195.942 276.943 194.809 274.677L191.205 276.48L187.6 278.282C190.047 283.174 195.095 286.17 199.014 287.737L200.51 283.996ZM191.205 276.48L194.661 274.406C193.127 271.849 192.73 268.187 192.73 264.311H188.7H184.67C184.67 268.309 184.988 273.952 187.749 278.553L191.205 276.48ZM188.7 264.311L192.721 264.043C192.551 261.495 192.372 254.092 192.327 246.57C192.281 238.93 192.382 231.751 192.694 229.411L188.7 228.878L184.705 228.346C184.301 231.374 184.223 239.227 184.267 246.618C184.312 254.129 184.49 261.758 184.679 264.579L188.7 264.311ZM188.7 228.878L192.665 229.599C193.285 226.187 194.808 222.743 196.918 220.633L194.068 217.783L191.219 214.934C187.602 218.55 185.546 223.695 184.735 228.157L188.7 228.878ZM194.068 217.783L196.764 220.779C199.418 218.391 203.769 217.092 208.281 216.398L207.669 212.415L207.056 208.431C202.262 209.169 195.877 210.733 191.372 214.788L194.068 217.783ZM207.669 212.415L208.297 216.395C214.687 215.386 220.983 215.729 228.069 215.729V211.699V207.669C221.555 207.669 214.251 207.295 207.04 208.434L207.669 212.415ZM228.069 211.699V215.729H316.114V211.699V207.669H228.069V211.699ZM316.114 211.699H320.144V169.108H316.114H312.084V211.699H316.114ZM316.114 169.108L315.995 165.08C303.905 165.435 233.119 165.435 221.03 165.08L220.911 169.108L220.793 173.136C233.04 173.497 303.984 173.497 316.232 173.136L316.114 169.108ZM220.911 169.108H224.941C224.941 165.098 224.765 161.509 225.021 157.846C225.269 154.284 225.914 151.147 227.34 148.437L223.774 146.56L220.208 144.683C218.055 148.773 217.269 153.152 216.98 157.285C216.699 161.317 216.881 165.602 216.881 169.108H220.911ZM223.774 146.56L227.23 148.634C229.538 144.786 234.869 142.26 240.351 141.615L239.88 137.613L239.409 133.61C232.722 134.397 224.453 137.597 220.319 144.487L223.774 146.56ZM239.88 137.613L240.58 141.581C241.739 141.377 244.564 141.218 248.616 141.127C252.539 141.039 257.288 141.016 262.07 141.016C271.486 141.016 281.297 141.108 284.497 140.92L284.26 136.897L284.024 132.874C281.139 133.043 271.802 132.956 262.07 132.956C257.278 132.956 252.453 132.978 248.435 133.069C244.547 133.157 241.063 133.311 239.18 133.644L239.88 137.613ZM284.26 136.897L284.443 140.923C292.243 140.568 299.791 141.013 305.505 144.321L307.524 140.834L309.543 137.346C301.657 132.78 292.025 132.51 284.077 132.871L284.26 136.897ZM307.524 140.834L305.36 144.234C308.24 146.066 310.503 149.658 311.057 153.257L315.04 152.645L319.023 152.032C318.145 146.325 314.682 140.612 309.688 137.434L307.524 140.834ZM315.04 152.645L311.146 153.683C312.402 158.393 312.084 163.008 312.084 169.108H316.114H320.144C320.144 163.755 320.541 157.633 318.934 151.606L315.04 152.645ZM316.114 169.108L316.297 173.134C324.119 172.778 332.011 173.23 337.716 176.533L339.735 173.045L341.755 169.557C333.859 164.986 323.857 164.722 315.931 165.082L316.114 169.108ZM339.735 173.045L337.572 176.445C340.235 178.14 342.363 181.951 343.325 186.12L347.251 185.214L351.178 184.308C349.993 179.171 347.11 172.961 341.899 169.645L339.735 173.045ZM347.251 185.214L343.3 186.004C343.583 187.422 343.826 190.626 343.996 195.098C344.162 199.446 344.251 204.68 344.295 209.943C344.385 220.483 344.295 230.971 344.295 234.605H348.325H352.355C352.355 231.08 352.445 220.452 352.355 209.875C352.31 204.58 352.22 199.256 352.05 194.791C351.885 190.449 351.635 186.584 351.203 184.423L347.251 185.214ZM348.325 234.605H344.295C344.295 262.168 344.295 289.7 343.938 317.228L347.967 317.281L351.997 317.333C352.355 289.744 352.355 262.159 352.355 234.605H348.325ZM347.967 317.281L347.828 313.253C337.543 313.608 326.897 313.608 316.248 313.253L316.114 317.281L315.979 321.308C326.804 321.669 337.633 321.669 348.106 321.308L347.967 317.281ZM316.114 317.281H320.144V243.91H316.114H312.084V317.281H316.114ZM316.114 243.91V239.88H220.195V243.91V247.94H316.114V243.91ZM220.195 243.91L216.174 244.178C216.52 249.37 216.165 279.824 216.165 285.069H220.195H224.225C224.225 280.293 224.586 249.187 224.216 243.642L220.195 243.91ZM220.195 285.069V289.099H284.976V285.069V281.039H220.195V285.069ZM284.976 285.069H280.946V317.281H284.976H289.006V285.069H284.976ZM284.976 317.281L284.689 313.261C279.876 313.605 251.071 313.606 245.875 313.26L245.606 317.281L245.338 321.302C250.879 321.671 280.055 321.672 285.263 321.3L284.976 317.281ZM417.241 317.639L417.35 313.61L417.296 313.609H417.241V317.639ZM399.346 316.207L398.286 320.095L398.327 320.106L398.369 320.117L399.346 316.207ZM389.325 309.765L392.506 307.29L392.489 307.269L392.472 307.247L389.325 309.765ZM385.746 296.522H389.776V296.271L389.745 296.022L385.746 296.522ZM385.388 168.392V164.362H381.358V168.392H385.388ZM416.883 168.392V172.422H420.913V168.392H416.883ZM422.61 142.981L419.843 140.051L419.801 140.091L419.76 140.131L422.61 142.981ZM524.255 136.539H528.285V132.509H524.255V136.539ZM524.255 168.392V172.422H528.285V168.392H524.255ZM417.241 168.392L417.35 164.364L413.211 164.252V168.392H417.241ZM417.241 285.427H413.211V289.457H417.241V285.427ZM524.613 285.427H528.643V281.397H524.613V285.427ZM524.613 317.639L524.722 321.667L528.643 321.561V317.639H524.613ZM417.241 317.639V313.609C411.059 313.609 405.485 313.588 400.323 312.297L399.346 316.207L398.369 320.117C404.66 321.69 411.254 321.669 417.241 321.669V317.639ZM399.346 316.207L400.406 312.319C397.171 311.436 394.393 309.717 392.506 307.29L389.325 309.765L386.144 312.239C389.267 316.255 393.647 318.83 398.286 320.095L399.346 316.207ZM389.325 309.765L392.472 307.247C390.5 304.783 389.776 300.955 389.776 296.522H385.746H381.716C381.716 301.394 382.423 307.588 386.178 312.282L389.325 309.765ZM385.746 296.522L389.745 296.022C389.602 294.885 389.508 290.457 389.462 285.568C389.418 280.847 389.418 276.121 389.418 274.69H385.388H381.358C381.358 276.122 381.358 280.881 381.403 285.644C381.446 290.24 381.531 295.296 381.747 297.022L385.746 296.522ZM385.388 274.69H389.418V168.392H385.388H381.358V274.69H385.388ZM385.388 168.392V172.422H416.883V168.392V164.362H385.388V168.392ZM416.883 168.392H420.913C420.913 163.961 420.835 159.491 421.451 155.339C422.066 151.203 423.297 147.993 425.459 145.831L422.61 142.981L419.76 140.131C415.839 144.053 414.207 149.254 413.479 154.155C412.753 159.041 412.853 164.234 412.853 168.392H416.883ZM422.61 142.981L425.377 145.911C427.811 143.612 431.252 142.219 435.465 141.441C439.676 140.665 444.269 140.569 448.737 140.569V136.539V132.509C444.257 132.509 439.008 132.592 434.003 133.515C429 134.438 423.851 136.266 419.843 140.051L422.61 142.981ZM448.737 136.539V140.569H524.255V136.539V132.509H448.737V136.539ZM524.255 136.539H520.225V168.392H524.255H528.285V136.539H524.255ZM524.255 168.392V164.362C510.918 164.362 430.521 164.72 417.35 164.364L417.241 168.392L417.132 172.421C430.447 172.781 511.106 172.422 524.255 172.422V168.392ZM417.241 168.392H413.211V285.427H417.241H421.271V168.392H417.241ZM417.241 285.427V289.457H524.613V285.427V281.397H417.241V285.427ZM524.613 285.427H520.583V317.639H524.613H528.643V285.427H524.613ZM524.613 317.639L524.504 313.61C511.334 313.966 430.52 313.966 417.35 313.61L417.241 317.639L417.132 321.667C430.447 322.027 511.407 322.027 524.722 321.667L524.613 317.639ZM588.988 317.639V321.669H593.018V317.639H588.988ZM557.134 317.639H553.104V321.669H557.134V317.639ZM557.134 66.7474V62.7174H553.104V66.7474H557.134ZM588.988 66.7474H593.018V62.7174H588.988V66.7474ZM663.432 317.639H659.402V321.669H663.432V317.639ZM663.432 232.457H667.462V228.427H663.432V232.457ZM588.988 232.457H584.958V236.487H588.988V232.457ZM588.988 200.246V196.216H584.958V200.246H588.988ZM663.432 200.246V204.276H667.462V200.246H663.432ZM663.432 136.539V132.509H659.402V136.539H663.432ZM695.644 136.539H699.674V132.509H695.644V136.539ZM695.286 181.993L691.317 181.292L691.314 181.311L691.31 181.33L695.286 181.993ZM689.917 194.161L687.24 191.149L687.151 191.228L687.067 191.312L689.917 194.161ZM663.79 200.604L663.951 196.577L659.76 196.409V200.604H663.79ZM663.79 232.457H659.76V236.747L664.041 236.479L663.79 232.457ZM681.327 233.889L682.513 230.037L682.409 230.005L682.305 229.979L681.327 233.889ZM693.138 243.194L689.479 244.883L689.506 244.94L689.534 244.997L693.138 243.194ZM695.644 317.639V321.669H699.467L699.668 317.85L695.644 317.639ZM588.988 317.639V313.609H557.134V317.639V321.669H588.988V317.639ZM557.134 317.639H561.164V66.7474H557.134H553.104V317.639H557.134ZM557.134 66.7474V70.7774H588.988V66.7474V62.7174H557.134V66.7474ZM588.988 66.7474H584.958V317.639H588.988H593.018V66.7474H588.988ZM663.432 317.639H667.462V232.457H663.432H659.402V317.639H663.432ZM663.432 232.457V228.427H588.988V232.457V236.487H663.432V232.457ZM588.988 232.457H593.018V200.246H588.988H584.958V232.457H588.988ZM588.988 200.246V204.276H663.432V200.246V196.216H588.988V200.246ZM663.432 200.246H667.462V136.539H663.432H659.402V200.246H663.432ZM663.432 136.539V140.569H695.644V136.539V132.509H663.432V136.539ZM695.644 136.539H691.614C691.614 139.702 691.793 149.787 691.837 159.418C691.86 164.305 691.848 169.153 691.765 173.146C691.68 177.271 691.521 180.137 691.317 181.292L695.286 181.993L699.254 182.693C699.587 180.806 699.742 177.274 699.824 173.313C699.909 169.219 699.92 164.292 699.897 159.382C699.852 149.418 699.674 139.818 699.674 136.539H695.644ZM695.286 181.993L691.31 181.33C690.605 185.562 689.328 189.293 687.24 191.149L689.917 194.161L692.594 197.173C696.948 193.303 698.535 187.013 699.261 182.655L695.286 181.993ZM689.917 194.161L687.067 191.312C684.629 193.75 681.211 195.204 677.062 195.97C672.908 196.736 668.35 196.753 663.951 196.577L663.79 200.604L663.629 204.631C668.177 204.812 673.462 204.83 678.524 203.896C683.592 202.961 688.763 201.015 692.767 197.011L689.917 194.161ZM663.79 200.604H659.76V232.457H663.79H667.82V200.604H663.79ZM663.79 232.457L664.041 236.479C669.444 236.142 675.103 236.487 680.35 237.799L681.327 233.889L682.305 229.979C676.098 228.428 669.589 228.057 663.539 228.435L663.79 232.457ZM681.327 233.889L680.142 237.741C684.179 238.983 687.988 241.652 689.479 244.883L693.138 243.194L696.797 241.506C693.994 235.432 687.781 231.658 682.513 230.037L681.327 233.889ZM693.138 243.194L689.534 244.997C690.817 247.562 691.373 250.376 691.577 253.563C691.79 256.888 691.614 260.093 691.614 263.953H695.644H699.674C699.674 260.655 699.855 256.701 699.621 253.047C699.378 249.256 698.681 245.269 696.743 241.392L693.138 243.194ZM695.644 263.953H691.614C691.614 270.579 691.97 310.766 691.619 317.427L695.644 317.639L699.668 317.85C700.033 310.911 699.674 270.211 699.674 263.953H695.644ZM695.644 317.639V313.609H663.432V317.639V321.669H695.644V317.639Z" fill="black"/>
<path d="M874.144 171.691C874.144 203.902 831.196 236.471 765.341 237.187C763.909 244.345 762.836 251.861 762.836 259.019C762.836 285.146 777.51 292.662 793.258 292.662C808.648 292.662 824.037 283.357 837.28 261.167L848.375 264.03C840.859 284.073 820.1 322.011 782.52 322.011C754.246 322.011 733.845 307.694 733.845 270.83C733.845 218.218 780.015 143.058 836.564 143.058C857.68 143.058 874.144 149.859 874.144 171.691ZM825.111 161.311C803.995 161.311 780.015 191.375 768.92 224.303C814.016 219.292 838.354 193.523 838.354 174.196C838.354 165.248 833.343 161.311 825.111 161.311ZM911.855 322.011C894.676 322.011 883.939 311.274 883.939 293.378C883.939 285.146 886.444 274.767 891.455 262.956L923.666 190.302C926.887 183.859 927.961 179.207 927.961 176.343C927.961 172.049 925.814 170.617 922.951 170.617C916.508 170.617 908.276 178.849 896.823 198.534L885.728 195.312C898.971 166.68 915.435 143.058 938.34 143.058C950.509 143.058 960.173 148.427 960.173 163.101C960.173 169.901 956.594 181.712 951.225 194.239L920.803 261.883C916.15 271.904 914.719 279.062 914.719 283.715C914.719 291.947 920.087 294.452 925.814 294.452C958.383 294.452 1001.33 209.629 1022.45 147.353H1050.01L1011 274.409C1009.56 279.778 1008.85 283.715 1008.85 286.578C1008.85 290.873 1010.64 292.662 1014.22 292.662C1020.3 292.662 1027.82 284.431 1039.27 264.388L1050.36 267.967C1037.12 296.599 1021.73 320.221 998.826 320.221C988.447 320.221 979.499 313.779 979.499 300.894C979.499 288.368 982.363 279.062 1008.85 216.787H1003.48C965.899 292.305 943.709 322.011 911.855 322.011ZM1100.78 317H1073.23L1110.45 192.449C1113.31 182.428 1114.38 178.491 1114.38 175.986C1114.38 172.049 1112.6 170.617 1109.37 170.617C1103.29 170.617 1095.42 178.849 1083.96 198.534L1072.87 195.312C1086.11 166.68 1102.57 143.058 1125.48 143.058C1137.65 143.058 1146.24 148.069 1146.24 162.743C1146.24 174.196 1139.44 190.66 1113.67 247.924H1119.04C1143.38 200.681 1162.7 170.617 1173.44 159.164C1182.39 148.069 1190.62 143.058 1200.64 143.058C1211.02 143.058 1222.83 149.859 1222.83 165.248C1222.83 179.207 1215.67 190.66 1202.79 190.66C1196.34 190.66 1193.48 188.512 1191.33 185.291C1188.47 181.354 1187.04 175.27 1182.39 170.975C1156.26 194.597 1121.9 255.082 1100.78 317ZM1264.04 322.011C1235.05 322.011 1210.72 308.052 1210.72 267.967C1210.72 242.198 1220.74 212.85 1236.84 188.154C1252.59 163.817 1274.07 143.058 1307.71 143.058C1336.7 143.058 1361.39 157.017 1361.39 197.102C1361.39 222.871 1351.02 252.219 1334.91 276.915C1319.16 301.252 1297.69 322.011 1264.04 322.011ZM1260.11 307.337C1281.94 307.337 1298.4 282.641 1310.93 256.514C1325.25 225.734 1330.97 199.607 1330.97 183.144C1330.97 164.891 1323.81 157.732 1312 157.732C1290.17 157.732 1273.35 182.428 1261.18 208.555C1246.51 239.335 1240.78 265.462 1240.78 281.925C1240.78 300.178 1247.94 307.337 1260.11 307.337ZM1410.6 317.358L1400.57 349.569C1392.34 374.981 1398.78 376.77 1431.71 380.349L1428.85 390.728H1337.58L1340.45 380.349C1357.98 377.844 1364.43 375.338 1374.81 342.769L1424.55 184.933L1384.11 202.113L1391.98 176.701L1432.07 161.669L1446.03 117.289L1475.02 114.784L1461.42 157.732C1470.37 149.859 1481.82 143.058 1495.42 143.058C1515.46 143.058 1533.36 158.09 1533.36 192.449C1533.36 254.367 1483.61 318.79 1425.63 318.79C1420.97 318.79 1415.96 318.432 1410.6 317.358ZM1471.44 168.112C1466.07 168.112 1461.78 168.827 1457.48 169.901L1415.61 301.61C1419.19 302.326 1422.41 302.684 1426.34 302.684C1474.66 302.684 1502.93 245.419 1502.93 207.123C1502.93 181.354 1490.41 168.112 1471.44 168.112ZM1687.4 171.691C1687.4 203.902 1644.45 236.471 1578.6 237.187C1577.16 244.345 1576.09 251.861 1576.09 259.019C1576.09 285.146 1590.76 292.662 1606.51 292.662C1621.9 292.662 1637.29 283.357 1650.53 261.167L1661.63 264.03C1654.11 284.073 1633.35 322.011 1595.77 322.011C1567.5 322.011 1547.1 307.694 1547.1 270.83C1547.1 218.218 1593.27 143.058 1649.82 143.058C1670.93 143.058 1687.4 149.859 1687.4 171.691ZM1638.37 161.311C1617.25 161.311 1593.27 191.375 1582.17 224.303C1627.27 219.292 1651.61 193.523 1651.61 174.196C1651.61 165.248 1646.6 161.311 1638.37 161.311Z" fill="black"/>
<path d="M765.341 237.187L765.297 233.158L762.03 233.193L761.389 236.397L765.341 237.187ZM837.28 261.167L838.287 257.265L835.365 256.511L833.819 259.102L837.28 261.167ZM848.375 264.03L852.148 265.445L853.722 261.248L849.382 260.128L848.375 264.03ZM768.92 224.303L765.101 223.016L763.083 229.006L769.365 228.308L768.92 224.303ZM874.144 171.691H870.114C870.114 185.93 860.564 201.031 842.251 212.865C824.028 224.641 797.601 232.806 765.297 233.158L765.341 237.187L765.385 241.217C798.935 240.852 826.91 232.375 846.625 219.635C866.25 206.952 878.174 189.662 878.174 171.691H874.144ZM765.341 237.187L761.389 236.397C759.932 243.682 758.806 251.488 758.806 259.019H762.836H766.866C766.866 252.235 767.886 245.009 769.293 237.978L765.341 237.187ZM762.836 259.019H758.806C758.806 272.834 762.705 282.483 769.424 288.615C776.072 294.683 784.813 296.692 793.258 296.692V292.662V288.632C785.954 288.632 779.484 286.884 774.858 282.662C770.303 278.505 766.866 271.332 766.866 259.019H762.836ZM793.258 292.662V296.692C810.554 296.692 827.061 286.154 840.74 263.232L837.28 261.167L833.819 259.102C821.014 280.56 806.741 288.632 793.258 288.632V292.662ZM837.28 261.167L836.273 265.069L847.368 267.932L848.375 264.03L849.382 260.128L838.287 257.265L837.28 261.167ZM848.375 264.03L844.602 262.615C840.951 272.35 834.105 286.346 823.731 297.836C813.386 309.291 799.809 317.981 782.52 317.981V322.011V326.041C802.812 326.041 818.404 315.761 829.713 303.237C840.991 290.747 848.283 275.752 852.148 265.445L848.375 264.03ZM782.52 322.011V317.981C769.012 317.981 757.99 314.562 750.353 307.32C742.757 300.118 737.875 288.53 737.875 270.83H733.845H729.815C729.815 289.995 735.134 303.997 744.807 313.169C754.439 322.302 767.755 326.041 782.52 326.041V322.011ZM733.845 270.83H737.875C737.875 245.543 749.04 214.416 767.248 189.599C785.495 164.729 810.119 147.088 836.564 147.088V143.058V139.028C806.46 139.028 779.725 158.968 760.75 184.831C741.736 210.747 729.815 243.506 729.815 270.83H733.845ZM836.564 143.058V147.088C846.821 147.088 855.277 148.764 861.063 152.558C866.546 156.153 870.114 161.962 870.114 171.691H874.144H878.174C878.174 159.588 873.51 151.08 865.482 145.817C857.757 140.753 847.423 139.028 836.564 139.028V143.058ZM825.111 161.311V157.281C812.748 157.281 800.45 165.937 790.204 177.829C779.805 189.899 770.795 206.118 765.101 223.016L768.92 224.303L772.739 225.59C778.14 209.56 786.667 194.283 796.311 183.09C806.108 171.718 816.358 165.341 825.111 165.341V161.311ZM768.92 224.303L769.365 228.308C792.578 225.729 810.688 217.78 823.083 207.751C835.375 197.804 842.384 185.487 842.384 174.196H838.354H834.324C834.324 182.232 829.163 192.463 818.013 201.485C806.965 210.425 790.359 217.866 768.475 220.297L768.92 224.303ZM838.354 174.196H842.384C842.384 168.977 840.904 164.525 837.55 161.435C834.257 158.4 829.805 157.281 825.111 157.281V161.311V165.341C828.649 165.341 830.818 166.191 832.088 167.362C833.298 168.477 834.324 170.467 834.324 174.196H838.354ZM891.455 262.956L887.771 261.323L887.758 261.353L887.745 261.382L891.455 262.956ZM923.666 190.302L920.062 188.499L920.02 188.583L919.982 188.668L923.666 190.302ZM896.823 198.534L895.7 202.404L898.723 203.282L900.307 200.56L896.823 198.534ZM885.728 195.312L882.071 193.621L880.103 197.876L884.605 199.183L885.728 195.312ZM951.225 194.239L954.9 195.892L954.915 195.859L954.929 195.826L951.225 194.239ZM920.803 261.883L924.458 263.58L924.469 263.558L924.478 263.536L920.803 261.883ZM1022.45 147.353V143.323H1019.56L1018.63 146.059L1022.45 147.353ZM1050.01 147.353L1053.86 148.536L1055.46 143.323H1050.01V147.353ZM1011 274.409L1007.14 273.226L1007.12 273.298L1007.1 273.371L1011 274.409ZM1039.27 264.388L1040.51 260.553L1037.39 259.548L1035.77 262.389L1039.27 264.388ZM1050.36 267.967L1054.02 269.659L1055.93 265.529L1051.6 264.132L1050.36 267.967ZM1008.85 216.787L1012.56 218.364L1014.94 212.757H1008.85V216.787ZM1003.48 216.787V212.757H1000.98L999.871 214.991L1003.48 216.787ZM911.855 322.011V317.981C904.117 317.981 898.257 315.581 894.331 311.582C890.397 307.575 887.969 301.519 887.969 293.378H883.939H879.909C879.909 303.133 882.85 311.393 888.579 317.229C894.316 323.072 902.414 326.041 911.855 326.041V322.011ZM883.939 293.378H887.969C887.969 285.886 890.271 276.066 895.165 264.53L891.455 262.956L887.745 261.382C882.618 273.468 879.909 284.407 879.909 293.378H883.939ZM891.455 262.956L895.139 264.59L927.35 191.935L923.666 190.302L919.982 188.668L887.771 261.323L891.455 262.956ZM923.666 190.302L927.271 192.104C930.638 185.369 931.991 180.075 931.991 176.343H927.961H923.931C923.931 178.339 923.137 182.35 920.062 188.499L923.666 190.302ZM927.961 176.343H931.991C931.991 173.575 931.296 170.937 929.379 169.02C927.462 167.103 925.003 166.587 922.951 166.587V170.617V174.647C923.761 174.647 923.807 174.847 923.68 174.719C923.552 174.592 923.931 174.817 923.931 176.343H927.961ZM922.951 170.617V166.587C918.018 166.587 913.345 169.683 908.845 174.417C904.232 179.271 899.126 186.562 893.34 196.507L896.823 198.534L900.307 200.56C905.974 190.82 910.711 184.154 914.687 179.97C918.777 175.667 921.441 174.647 922.951 174.647V170.617ZM896.823 198.534L897.947 194.663L886.852 191.442L885.728 195.312L884.605 199.183L895.7 202.404L896.823 198.534ZM885.728 195.312L889.386 197.004C895.947 182.818 903.169 170.193 911.391 161.161C919.585 152.16 928.427 147.088 938.34 147.088V143.058V139.028C925.348 139.028 914.505 145.767 905.431 155.735C896.384 165.673 888.752 179.175 882.071 193.621L885.728 195.312ZM938.34 143.058V147.088C943.918 147.088 948.336 148.331 951.289 150.713C954.09 152.973 956.143 156.719 956.143 163.101H960.173H964.203C964.203 154.809 961.423 148.533 956.35 144.44C951.43 140.47 944.931 139.028 938.34 139.028V143.058ZM960.173 163.101H956.143C956.143 165.926 955.375 170.143 953.843 175.394C952.333 180.572 950.157 186.501 947.521 192.651L951.225 194.239L954.929 195.826C957.662 189.45 959.959 183.21 961.581 177.651C963.181 172.164 964.203 167.076 964.203 163.101H960.173ZM951.225 194.239L947.55 192.586L917.128 260.23L920.803 261.883L924.478 263.536L954.9 195.892L951.225 194.239ZM920.803 261.883L917.148 260.186C912.339 270.542 910.689 278.292 910.689 283.715H914.719H918.749C918.749 279.832 919.961 273.266 924.458 263.58L920.803 261.883ZM914.719 283.715H910.689C910.689 288.776 912.388 292.733 915.593 295.311C918.638 297.76 922.454 298.482 925.814 298.482V294.452V290.422C923.447 290.422 921.715 289.891 920.645 289.03C919.734 288.297 918.749 286.886 918.749 283.715H914.719ZM925.814 294.452V298.482C935.622 298.482 945.407 292.19 954.531 283.077C963.795 273.825 973.072 260.967 981.879 246.334C999.508 217.043 1015.64 179.993 1026.26 148.647L1022.45 147.353L1018.63 146.059C1008.14 176.989 992.24 213.488 974.973 242.178C966.332 256.535 957.445 268.775 948.836 277.374C940.087 286.111 932.29 290.422 925.814 290.422V294.452ZM1022.45 147.353V151.383H1050.01V147.353V143.323H1022.45V147.353ZM1050.01 147.353L1046.15 146.17L1007.14 273.226L1011 274.409L1014.85 275.592L1053.86 148.536L1050.01 147.353ZM1011 274.409L1007.1 273.371C1005.65 278.798 1004.82 283.16 1004.82 286.578H1008.85H1012.88C1012.88 284.27 1013.47 280.758 1014.89 275.448L1011 274.409ZM1008.85 286.578H1004.82C1004.82 289.173 1005.34 291.888 1007.21 293.942C1009.15 296.081 1011.8 296.692 1014.22 296.692V292.662V288.632C1013.05 288.632 1013.02 288.349 1013.17 288.52C1013.25 288.606 1012.88 288.278 1012.88 286.578H1008.85ZM1014.22 292.662V296.692C1019.09 296.692 1023.52 293.455 1027.74 288.724C1032.09 283.84 1037 276.477 1042.77 266.387L1039.27 264.388L1035.77 262.389C1030.08 272.342 1025.51 279.116 1021.72 283.358C1017.8 287.754 1015.43 288.632 1014.22 288.632V292.662ZM1039.27 264.388L1038.03 268.223L1049.13 271.802L1050.36 267.967L1051.6 264.132L1040.51 260.553L1039.27 264.388ZM1050.36 267.967L1046.71 266.275C1040.12 280.508 1033.16 293.134 1025.2 302.165C1017.27 311.147 1008.71 316.191 998.826 316.191V320.221V324.251C1011.85 324.251 1022.43 317.484 1031.24 307.497C1040.01 297.559 1047.36 284.058 1054.02 269.659L1050.36 267.967ZM998.826 320.221V316.191C994.446 316.191 990.645 314.835 987.985 312.411C985.386 310.042 983.529 306.342 983.529 300.894H979.499H975.469C975.469 308.331 978.086 314.294 982.556 318.368C986.965 322.387 992.828 324.251 998.826 324.251V320.221ZM979.499 300.894H983.529C983.529 289.395 985.913 281.012 1012.56 218.364L1008.85 216.787L1005.14 215.21C978.813 277.112 975.469 287.34 975.469 300.894H979.499ZM1008.85 216.787V212.757H1003.48V216.787V220.817H1008.85V216.787ZM1003.48 216.787L999.871 214.991C981.076 252.76 966.319 278.664 952.439 295.12C938.685 311.426 926.204 317.981 911.855 317.981V322.011V326.041C929.36 326.041 943.902 317.742 958.6 300.316C973.174 283.039 988.302 256.331 1007.09 218.582L1003.48 216.787ZM1100.78 317V321.03H1103.67L1104.6 318.301L1100.78 317ZM1073.23 317L1069.36 315.846L1067.82 321.03H1073.23V317ZM1110.45 192.449L1114.31 193.603L1114.32 193.58L1114.32 193.556L1110.45 192.449ZM1083.96 198.534L1082.84 202.404L1085.86 203.282L1087.45 200.56L1083.96 198.534ZM1072.87 195.312L1069.21 193.621L1067.24 197.876L1071.74 199.183L1072.87 195.312ZM1113.67 247.924L1109.99 246.271L1107.44 251.954H1113.67V247.924ZM1119.04 247.924V251.954H1121.49L1122.62 249.77L1119.04 247.924ZM1173.44 159.164L1176.38 161.92L1176.48 161.811L1176.58 161.694L1173.44 159.164ZM1191.33 185.291L1194.69 183.056L1194.64 182.987L1194.59 182.921L1191.33 185.291ZM1182.39 170.975L1185.12 168.014L1182.41 165.516L1179.68 167.986L1182.39 170.975ZM1100.78 317V312.97H1073.23V317V321.03H1100.78V317ZM1073.23 317L1077.09 318.154L1114.31 193.603L1110.45 192.449L1106.59 191.295L1069.36 315.846L1073.23 317ZM1110.45 192.449L1114.32 193.556C1115.75 188.567 1116.76 184.999 1117.4 182.36C1118.04 179.767 1118.41 177.756 1118.41 175.986H1114.38H1110.35C1110.35 176.721 1110.19 177.931 1109.58 180.438C1108.97 182.899 1108.01 186.31 1106.57 191.342L1110.45 192.449ZM1114.38 175.986H1118.41C1118.41 173.497 1117.86 170.897 1115.94 168.975C1114.01 167.049 1111.49 166.587 1109.37 166.587V170.617V174.647C1110.48 174.647 1110.46 174.901 1110.24 174.675C1110.02 174.453 1110.35 174.537 1110.35 175.986H1114.38ZM1109.37 170.617V166.587C1104.54 166.587 1100.03 169.779 1095.72 174.464C1091.26 179.304 1086.26 186.579 1080.48 196.507L1083.96 198.534L1087.45 200.56C1093.12 190.803 1097.78 184.12 1101.65 179.923C1105.65 175.571 1108.12 174.647 1109.37 174.647V170.617ZM1083.96 198.534L1085.09 194.663L1073.99 191.442L1072.87 195.312L1071.74 199.183L1082.84 202.404L1083.96 198.534ZM1072.87 195.312L1076.53 197.004C1083.09 182.818 1090.31 170.193 1098.53 161.161C1106.72 152.16 1115.57 147.088 1125.48 147.088V143.058V139.028C1112.49 139.028 1101.64 145.767 1092.57 155.735C1083.52 165.673 1075.89 179.175 1069.21 193.621L1072.87 195.312ZM1125.48 143.058V147.088C1131.11 147.088 1135.19 148.264 1137.83 150.481C1140.33 152.585 1142.21 156.209 1142.21 162.743H1146.24H1150.27C1150.27 154.603 1147.85 148.385 1143.02 144.314C1138.31 140.358 1132.01 139.028 1125.48 139.028V143.058ZM1146.24 162.743H1142.21C1142.21 167.672 1140.76 174.057 1135.86 186.699C1130.98 199.284 1122.89 217.61 1109.99 246.271L1113.67 247.924L1117.34 249.578C1130.22 220.974 1138.41 202.436 1143.37 189.61C1148.32 176.84 1150.27 169.267 1150.27 162.743H1146.24ZM1113.67 247.924V251.954H1119.04V247.924V243.894H1113.67V247.924ZM1119.04 247.924L1122.62 249.77C1146.96 202.513 1166.07 172.917 1176.38 161.92L1173.44 159.164L1170.5 156.408C1159.33 168.317 1139.79 198.849 1115.45 246.079L1119.04 247.924ZM1173.44 159.164L1176.58 161.694C1185.13 151.084 1192.33 147.088 1200.64 147.088V143.058V139.028C1188.91 139.028 1179.64 145.054 1170.3 156.634L1173.44 159.164ZM1200.64 143.058V147.088C1205.01 147.088 1209.59 148.531 1213.01 151.449C1216.33 154.28 1218.8 158.692 1218.8 165.248H1222.83H1226.86C1226.86 156.415 1223.42 149.732 1218.24 145.316C1213.16 140.986 1206.65 139.028 1200.64 139.028V143.058ZM1222.83 165.248H1218.8C1218.8 171.594 1217.17 177.044 1214.4 180.796C1211.71 184.434 1207.88 186.63 1202.79 186.63V190.66V194.69C1210.58 194.69 1216.77 191.159 1220.88 185.581C1224.91 180.117 1226.86 172.861 1226.86 165.248H1222.83ZM1202.79 190.66V186.63C1200 186.63 1198.37 186.165 1197.32 185.615C1196.31 185.083 1195.52 184.302 1194.69 183.056L1191.33 185.291L1187.98 187.527C1189.3 189.501 1191.01 191.404 1193.58 192.751C1196.11 194.081 1199.13 194.69 1202.79 194.69V190.66ZM1191.33 185.291L1194.59 182.921C1193.41 181.296 1192.6 179.347 1191.12 176.44C1189.77 173.771 1187.98 170.657 1185.12 168.014L1182.39 170.975L1179.65 173.936C1181.44 175.588 1182.7 177.663 1183.94 180.095C1185.06 182.288 1186.39 185.349 1188.08 187.661L1191.33 185.291ZM1182.39 170.975L1179.68 167.986C1166.14 180.234 1150.76 201.709 1136.19 227.653C1121.58 253.679 1107.61 284.505 1096.97 315.699L1100.78 317L1104.6 318.301C1115.08 287.578 1128.84 257.202 1143.22 231.6C1157.64 205.917 1172.51 185.338 1185.09 173.964L1182.39 170.975ZM1236.84 188.154L1240.22 190.356L1240.22 190.35L1240.23 190.344L1236.84 188.154ZM1334.91 276.915L1331.53 274.713L1331.53 274.719L1331.53 274.725L1334.91 276.915ZM1310.93 256.514L1314.56 258.256L1314.57 258.235L1314.58 258.214L1310.93 256.514ZM1261.18 208.555L1264.82 210.289L1264.83 210.273L1264.83 210.256L1261.18 208.555ZM1264.04 322.011V317.981C1250.13 317.981 1237.88 314.624 1229.16 306.989C1220.54 299.44 1214.75 287.164 1214.75 267.967H1210.72H1206.69C1206.69 288.855 1213.06 303.601 1223.85 313.053C1234.55 322.418 1248.97 326.041 1264.04 326.041V322.011ZM1210.72 267.967H1214.75C1214.75 243.144 1224.44 214.549 1240.22 190.356L1236.84 188.154L1233.47 185.953C1217.03 211.151 1206.69 241.252 1206.69 267.967H1210.72ZM1236.84 188.154L1240.23 190.344C1255.68 166.463 1276.09 147.088 1307.71 147.088V143.058V139.028C1272.04 139.028 1249.5 161.17 1233.46 185.965L1236.84 188.154ZM1307.71 143.058V147.088C1321.63 147.088 1333.97 150.446 1342.78 158.092C1351.49 165.648 1357.36 177.924 1357.36 197.102H1361.39H1365.42C1365.42 176.195 1358.95 161.449 1348.06 152.004C1337.28 142.65 1322.78 139.028 1307.71 139.028V143.058ZM1361.39 197.102H1357.36C1357.36 221.896 1347.33 250.49 1331.53 274.713L1334.91 276.915L1338.29 279.116C1354.7 253.949 1365.42 223.846 1365.42 197.102H1361.39ZM1334.91 276.915L1331.53 274.725C1316.07 298.606 1295.66 317.981 1264.04 317.981V322.011V326.041C1299.71 326.041 1322.25 303.899 1338.29 279.104L1334.91 276.915ZM1260.11 307.337V311.367C1272.67 311.367 1283.25 304.247 1292.02 294.404C1300.81 284.541 1308.25 271.433 1314.56 258.256L1310.93 256.514L1307.3 254.772C1301.09 267.722 1294.03 280.025 1286 289.042C1277.95 298.078 1269.38 303.307 1260.11 303.307V307.337ZM1310.93 256.514L1314.58 258.214C1329.06 227.094 1335 200.375 1335 183.144H1330.97H1326.94C1326.94 198.839 1321.43 224.374 1307.28 254.815L1310.93 256.514ZM1330.97 183.144H1335C1335 173.605 1333.15 166.171 1329.06 161.071C1324.83 155.793 1318.76 153.702 1312 153.702V157.732V161.762C1317.05 161.762 1320.48 163.251 1322.77 166.115C1325.21 169.157 1326.94 174.429 1326.94 183.144H1330.97ZM1312 157.732V153.702C1299.45 153.702 1288.79 160.811 1279.97 170.657C1271.13 180.527 1263.68 193.644 1257.53 206.853L1261.18 208.555L1264.83 210.256C1270.85 197.339 1277.9 185.044 1285.97 176.035C1294.06 167.001 1302.72 161.762 1312 161.762V157.732ZM1261.18 208.555L1257.54 206.821C1242.7 237.958 1236.75 264.687 1236.75 281.925H1240.78H1244.81C1244.81 266.237 1250.32 240.711 1264.82 210.289L1261.18 208.555ZM1240.78 281.925H1236.75C1236.75 291.461 1238.6 298.91 1242.75 304.018C1247.05 309.299 1253.21 311.367 1260.11 311.367V307.337V303.307C1254.84 303.307 1251.33 301.795 1249.01 298.933C1246.54 295.899 1244.81 290.643 1244.81 281.925H1240.78ZM1410.6 317.358L1411.39 313.406L1407.83 312.694L1406.75 316.161L1410.6 317.358ZM1400.57 349.569L1404.41 350.811L1404.42 350.789L1404.42 350.767L1400.57 349.569ZM1431.71 380.349L1435.6 381.421L1436.86 376.855L1432.15 376.343L1431.71 380.349ZM1428.85 390.728V394.758H1431.92L1432.73 391.8L1428.85 390.728ZM1337.58 390.728L1333.7 389.657L1332.29 394.758H1337.58V390.728ZM1340.45 380.349L1339.88 376.36L1337.26 376.733L1336.56 379.277L1340.45 380.349ZM1374.81 342.769L1378.64 343.993L1378.65 343.981L1374.81 342.769ZM1424.55 184.933L1428.4 186.145L1431.03 177.805L1422.98 181.224L1424.55 184.933ZM1384.11 202.113L1380.26 200.92L1377.69 209.219L1385.69 205.822L1384.11 202.113ZM1391.98 176.701L1390.57 172.928L1388.72 173.622L1388.14 175.509L1391.98 176.701ZM1432.07 161.669L1433.48 165.443L1435.32 164.753L1435.91 162.878L1432.07 161.669ZM1446.03 117.289L1445.68 113.274L1442.99 113.506L1442.18 116.08L1446.03 117.289ZM1475.02 114.784L1478.86 116.001L1480.68 110.249L1474.67 110.769L1475.02 114.784ZM1461.42 157.732L1457.58 156.516L1453.2 170.332L1464.08 160.758L1461.42 157.732ZM1457.48 169.901L1456.5 165.992L1454.32 166.537L1453.64 168.68L1457.48 169.901ZM1415.61 301.61L1411.77 300.389L1410.4 304.679L1414.82 305.562L1415.61 301.61ZM1410.6 317.358L1406.75 316.161L1396.73 348.372L1400.57 349.569L1404.42 350.767L1414.44 318.555L1410.6 317.358ZM1400.57 349.569L1396.74 348.327C1394.66 354.734 1393.35 360.105 1393.31 364.554C1393.26 369.234 1394.62 373.204 1398.07 376.192C1401.23 378.933 1405.73 380.451 1410.97 381.548C1416.3 382.663 1423.08 383.465 1431.28 384.356L1431.71 380.349L1432.15 376.343C1423.88 375.444 1417.5 374.679 1412.62 373.659C1407.66 372.62 1404.88 371.431 1403.35 370.101C1402.1 369.018 1401.34 367.552 1401.37 364.637C1401.4 361.492 1402.37 357.11 1404.41 350.811L1400.57 349.569ZM1431.71 380.349L1427.83 379.277L1424.96 389.657L1428.85 390.728L1432.73 391.8L1435.6 381.421L1431.71 380.349ZM1428.85 390.728V386.698H1337.58V390.728V394.758H1428.85V390.728ZM1337.58 390.728L1341.47 391.8L1344.33 381.421L1340.45 380.349L1336.56 379.277L1333.7 389.657L1337.58 390.728ZM1340.45 380.349L1341.02 384.339C1349.75 383.091 1357 381.738 1363.13 375.708C1369.02 369.923 1373.46 360.25 1378.64 343.993L1374.81 342.769L1370.97 341.545C1365.77 357.857 1361.8 365.722 1357.49 369.958C1353.42 373.949 1348.68 375.102 1339.88 376.36L1340.45 380.349ZM1374.81 342.769L1378.65 343.981L1428.4 186.145L1424.55 184.933L1420.71 183.722L1370.96 341.558L1374.81 342.769ZM1424.55 184.933L1422.98 181.224L1382.53 198.403L1384.11 202.113L1385.69 205.822L1426.13 188.642L1424.55 184.933ZM1384.11 202.113L1387.96 203.305L1395.83 177.894L1391.98 176.701L1388.14 175.509L1380.26 200.92L1384.11 202.113ZM1391.98 176.701L1393.4 180.475L1433.48 165.443L1432.07 161.669L1430.65 157.896L1390.57 172.928L1391.98 176.701ZM1432.07 161.669L1435.91 162.878L1449.87 118.498L1446.03 117.289L1442.18 116.08L1428.23 160.46L1432.07 161.669ZM1446.03 117.289L1446.38 121.304L1475.37 118.799L1475.02 114.784L1474.67 110.769L1445.68 113.274L1446.03 117.289ZM1475.02 114.784L1471.18 113.567L1457.58 156.516L1461.42 157.732L1465.26 158.949L1478.86 116.001L1475.02 114.784ZM1461.42 157.732L1464.08 160.758C1472.68 153.194 1483.21 147.088 1495.42 147.088V143.058V139.028C1480.43 139.028 1468.06 146.523 1458.76 154.707L1461.42 157.732ZM1495.42 143.058V147.088C1504.39 147.088 1512.72 150.426 1518.86 157.509C1525.03 164.633 1529.33 175.945 1529.33 192.449H1533.36H1537.39C1537.39 174.595 1532.73 161.211 1524.95 152.23C1517.13 143.207 1506.49 139.028 1495.42 139.028V143.058ZM1533.36 192.449H1529.33C1529.33 222.382 1517.28 253.077 1498.13 276.273C1478.97 299.483 1453.08 314.76 1425.63 314.76V318.79V322.82C1456.15 322.82 1484.13 305.885 1504.34 281.404C1524.56 256.909 1537.39 224.434 1537.39 192.449H1533.36ZM1425.63 318.79V314.76C1421.19 314.76 1416.45 314.418 1411.39 313.406L1410.6 317.358L1409.81 321.31C1415.48 322.445 1420.76 322.82 1425.63 322.82V318.79ZM1471.44 168.112V164.082C1465.67 164.082 1461.04 164.857 1456.5 165.992L1457.48 169.901L1458.46 173.811C1462.51 172.798 1466.47 172.142 1471.44 172.142V168.112ZM1457.48 169.901L1453.64 168.68L1411.77 300.389L1415.61 301.61L1419.45 302.831L1461.32 171.122L1457.48 169.901ZM1415.61 301.61L1414.82 305.562C1418.64 306.326 1422.12 306.714 1426.34 306.714V302.684V298.654C1422.69 298.654 1419.73 298.326 1416.4 297.658L1415.61 301.61ZM1426.34 302.684V306.714C1452.27 306.714 1472.51 291.32 1486.08 271.545C1499.63 251.798 1506.96 227.119 1506.96 207.123H1502.93H1498.9C1498.9 225.424 1492.1 248.524 1479.44 266.984C1466.79 285.415 1448.73 298.654 1426.34 298.654V302.684ZM1502.93 207.123H1506.96C1506.96 193.636 1503.69 182.844 1497.38 175.358C1491 167.781 1481.92 164.082 1471.44 164.082V168.112V172.142C1479.93 172.142 1486.6 175.063 1491.22 180.551C1495.92 186.128 1498.9 194.841 1498.9 207.123H1502.93ZM1578.6 237.187L1578.55 233.158L1575.28 233.193L1574.64 236.397L1578.6 237.187ZM1650.53 261.167L1651.54 257.265L1648.62 256.511L1647.07 259.102L1650.53 261.167ZM1661.63 264.03L1665.4 265.445L1666.98 261.248L1662.64 260.128L1661.63 264.03ZM1582.17 224.303L1578.36 223.016L1576.34 229.006L1582.62 228.308L1582.17 224.303ZM1687.4 171.691H1683.37C1683.37 185.93 1673.82 201.031 1655.51 212.865C1637.28 224.641 1610.86 232.806 1578.55 233.158L1578.6 237.187L1578.64 241.217C1612.19 240.852 1640.16 232.375 1659.88 219.635C1679.5 206.952 1691.43 189.662 1691.43 171.691H1687.4ZM1578.6 237.187L1574.64 236.397C1573.19 243.682 1572.06 251.488 1572.06 259.019H1576.09H1580.12C1580.12 252.235 1581.14 245.009 1582.55 237.978L1578.6 237.187ZM1576.09 259.019H1572.06C1572.06 272.834 1575.96 282.483 1582.68 288.615C1589.33 294.683 1598.07 296.692 1606.51 296.692V292.662V288.632C1599.21 288.632 1592.74 286.884 1588.11 282.662C1583.56 278.505 1580.12 271.332 1580.12 259.019H1576.09ZM1606.51 292.662V296.692C1623.81 296.692 1640.32 286.154 1653.99 263.232L1650.53 261.167L1647.07 259.102C1634.27 280.56 1620 288.632 1606.51 288.632V292.662ZM1650.53 261.167L1649.53 265.069L1660.62 267.932L1661.63 264.03L1662.64 260.128L1651.54 257.265L1650.53 261.167ZM1661.63 264.03L1657.86 262.615C1654.21 272.35 1647.36 286.346 1636.99 297.836C1626.64 309.291 1613.06 317.981 1595.77 317.981V322.011V326.041C1616.07 326.041 1631.66 315.761 1642.97 303.237C1654.25 290.747 1661.54 275.752 1665.4 265.445L1661.63 264.03ZM1595.77 322.011V317.981C1582.27 317.981 1571.24 314.562 1563.61 307.32C1556.01 300.118 1551.13 288.53 1551.13 270.83H1547.1H1543.07C1543.07 289.995 1548.39 303.997 1558.06 313.169C1567.69 322.302 1581.01 326.041 1595.77 326.041V322.011ZM1547.1 270.83H1551.13C1551.13 245.543 1562.29 214.416 1580.5 189.599C1598.75 164.729 1623.37 147.088 1649.82 147.088V143.058V139.028C1619.71 139.028 1592.98 158.968 1574 184.831C1554.99 210.747 1543.07 243.506 1543.07 270.83H1547.1ZM1649.82 143.058V147.088C1660.08 147.088 1668.53 148.764 1674.32 152.558C1679.8 156.153 1683.37 161.962 1683.37 171.691H1687.4H1691.43C1691.43 159.588 1686.76 151.08 1678.74 145.817C1671.01 140.753 1660.68 139.028 1649.82 139.028V143.058ZM1638.37 161.311V157.281C1626 157.281 1613.7 165.937 1603.46 177.829C1593.06 189.899 1584.05 206.118 1578.36 223.016L1582.17 224.303L1585.99 225.59C1591.39 209.56 1599.92 194.283 1609.57 183.09C1619.36 171.718 1629.61 165.341 1638.37 165.341V161.311ZM1582.17 224.303L1582.62 228.308C1605.83 225.729 1623.94 217.78 1636.34 207.751C1648.63 197.804 1655.64 185.487 1655.64 174.196H1651.61H1647.58C1647.58 182.232 1642.42 192.463 1631.27 201.485C1620.22 210.425 1603.61 217.866 1581.73 220.297L1582.17 224.303ZM1651.61 174.196H1655.64C1655.64 168.977 1654.16 164.525 1650.8 161.435C1647.51 158.4 1643.06 157.281 1638.37 157.281V161.311V165.341C1641.9 165.341 1644.07 166.191 1645.34 167.362C1646.55 168.477 1647.58 170.467 1647.58 174.196H1651.61Z" fill="black"/>
</svg>
